# xmcd CD database file
#
# Track frame offsets:
#	150
#	20522
#	35674
#	57577
#	72040
#	94862
#	111857
#	137113
#	158989
#	177076
#	194897
#	210360
#	233868
#	243636
#
# Disc length: 3460 seconds
#
# Revision: 1
# Processed by: cddbd v1.4PL0 Copyright (c) Steve Scherf et al.
# Submitted via: CDex 1.50beta10
#
DISCID=cd0d820e
DTITLE=Microwave Dave and The Nukes - Nothin' But The Blues
DYEAR=1996
DGENRE=Blues
TTITLE0=20% Alcohol
TTITLE1=Start Me To Drinkin'
TTITLE2=Road Runner
TTITLE3=If The Four Winds Don't Change
TTITLE4=Last Call For Alcohol
TTITLE5=Pay Bo Diddley
TTITLE6=Born To Boogie Woogie
TTITLE7=Got My Mind Made Up
TTITLE8=Body And Fender Man
TTITLE9=Nothin' But The Blues
TTITLE10=Atomic Powered
TTITLE11=Highway's Like A Woman
TTITLE12=Jesus Was Smart
TTITLE13=Peace In The Alley
EXTD=YEAR: 1996
EXTT0=
EXTT1=
EXTT2=
EXTT3=
EXTT4=
EXTT5=
EXTT6=
EXTT7=
EXTT8=
EXTT9=
EXTT10=
EXTT11=
EXTT12=
EXTT13=
PLAYORDER=
